<svg width="800" height="200" viewBox="0 0 800 200" fill="none" xmlns="http://www.w3.org/2000/svg">
  <path d="M116 30H50C44.4772 30 40 34.4772 40 40V160C40 165.523 44.4772 170 50 170H116C121.523 170 126 165.523 126 160V40C126 34.4772 121.523 30 116 30Z" stroke="#FFFFFF" stroke-width="8"/>
  <path d="M126 50H150C155.523 50 160 54.4772 160 60V80C160 85.5228 155.523 90 150 90H126" stroke="#5BC194" stroke-width="8"/>
  <path d="M70 70H100" stroke="#FFFFFF" stroke-width="8" stroke-linecap="round"/>
  <path d="M70 100H100" stroke="#FFFFFF" stroke-width="8" stroke-linecap="round"/>
  <path d="M70 130H100" stroke="#FFFFFF" stroke-width="8" stroke-linecap="round"/>
  <path d="M200 60H220V140H200V60Z" fill="#FFFFFF"/>
  <path d="M230 60H290V80H250V90H280V110H250V120H290V140H230V60Z" fill="#FFFFFF"/>
  <path d="M300 60H320V120H350V140H300V60Z" fill="#FFFFFF"/>
  <path d="M360 60H380V120H410V140H360V60Z" fill="#FFFFFF"/>
  <path d="M420 60H440V140H420V60Z" fill="#FFFFFF"/>
  <path d="M450 60H510V80H470V90H500V110H470V120H510V140H450V60Z" fill="#FFFFFF"/>
  <path d="M520 60H570C580 60 590 70 590 80V120C590 130 580 140 570 140H520V60ZM540 80V120H560C565 120 570 115 570 110V90C570 85 565 80 560 80H540Z" fill="#FFFFFF"/>
  <path d="M600 60H650C660 60 670 70 670 80V90C670 100 660 110 650 110H620V140H600V60ZM620 80V90H640C645 90 650 85 650 80C650 75 645 70 640 70H620V80Z" fill="#FFFFFF"/>
  <path d="M680 60H700V120H730V140H680V60Z" fill="#FFFFFF"/>
  <path d="M740 60H760V90L790 60H815L780 95L815 140H790L760 100V140H740V60Z" fill="#FFFFFF"/>
</svg>